<svg width="31" height="30" viewBox="0 0 31 30" fill="none" xmlns="http://www.w3.org/2000/svg">
<path d="M13.5859 8.9375C13.5859 8.55893 13.6982 8.18887 13.9085 7.8741C14.1188 7.55934 14.4178 7.31401 14.7675 7.16914C15.1173 7.02427 15.5021 6.98636 15.8734 7.06022C16.2447 7.13407 16.5858 7.31637 16.8534 7.58405C17.1211 7.85174 17.3034 8.19279 17.3773 8.56409C17.4511 8.93538 17.4132 9.32023 17.2684 9.66998C17.1235 10.0197 16.8782 10.3187 16.5634 10.529C16.2486 10.7393 15.8786 10.8516 15.5 10.8516C14.9924 10.8516 14.5055 10.6499 14.1466 10.2909C13.7876 9.93199 13.5859 9.44514 13.5859 8.9375ZM7.02344 8.9375C7.02344 6.68938 7.9165 4.53333 9.50616 2.94367C11.0958 1.354 13.2519 0.460938 15.5 0.460938C17.7481 0.460938 19.9042 1.354 21.4938 2.94367C23.0835 4.53333 23.9766 6.68938 23.9766 8.9375C23.9766 16.9779 16.2369 21.4924 15.9102 21.6811C15.7855 21.7531 15.644 21.791 15.5 21.791C15.356 21.791 15.2145 21.7531 15.0898 21.6811C14.7631 21.4924 7.02344 16.9779 7.02344 8.9375ZM8.66406 8.9375C8.66406 15.0242 13.9701 18.985 15.5 19.9994C17.0285 18.985 22.3359 15.0256 22.3359 8.9375C22.3359 7.1245 21.6157 5.38575 20.3337 4.10376C19.0518 2.82178 17.313 2.10156 15.5 2.10156C13.687 2.10156 11.9482 2.82178 10.6663 4.10376C9.38428 5.38575 8.66406 7.1245 8.66406 8.9375ZM25.6281 18.4408C25.5263 18.3996 25.4173 18.3793 25.3075 18.381C25.1977 18.3828 25.0894 18.4065 24.9889 18.4509C24.8885 18.4953 24.798 18.5594 24.7227 18.6394C24.6475 18.7194 24.5892 18.8137 24.5511 18.9167C24.513 19.0197 24.496 19.1293 24.501 19.239C24.5061 19.3487 24.5331 19.4563 24.5805 19.5554C24.6279 19.6544 24.6947 19.7429 24.777 19.8157C24.8592 19.8885 24.9553 19.944 25.0594 19.9789C27.4629 20.8662 28.8984 22.0543 28.8984 23.1562C28.8984 25.3547 23.3955 27.8047 15.5 27.8047C7.60449 27.8047 2.10156 25.3547 2.10156 23.1562C2.10156 22.0543 3.53711 20.8662 5.94063 19.9789C6.04473 19.944 6.14076 19.8885 6.22301 19.8157C6.30527 19.7429 6.37208 19.6544 6.41948 19.5554C6.46689 19.4563 6.49392 19.3487 6.49898 19.239C6.50404 19.1293 6.48702 19.0197 6.44893 18.9167C6.41084 18.8137 6.35247 18.7194 6.27725 18.6394C6.20204 18.5594 6.11153 18.4953 6.01109 18.4509C5.91064 18.4065 5.80231 18.3828 5.69251 18.381C5.58271 18.3793 5.47367 18.3996 5.37187 18.4408C2.20547 19.6098 0.460938 21.2846 0.460938 23.1562C0.460938 24.9801 2.12617 26.6262 5.15176 27.7883C7.92852 28.8574 11.6035 29.4453 15.5 29.4453C19.3965 29.4453 23.0715 28.8574 25.8482 27.7883C28.8738 26.6262 30.5391 24.9801 30.5391 23.1562C30.5391 21.2846 28.7945 19.6098 25.6281 18.4408Z" fill="#4E3B3B"/>
</svg>
